<?xml version="1.0" standalone="no"?>
<!DOCTYPE svg PUBLIC "-//W3C//DTD SVG 20010904//EN"
 "http://www.w3.org/TR/2001/REC-SVG-20010904/DTD/svg10.dtd">
<svg version="1.0" xmlns="http://www.w3.org/2000/svg"
 width="136.000000pt" height="136.000000pt" viewBox="0 0 136.000000 136.000000"
 preserveAspectRatio="xMidYMid meet">
<metadata>
Created by potrace 1.11, written by Peter Selinger 2001-2013
</metadata>
<g transform="translate(0.000000,136.000000) scale(0.100000,-0.100000)"
fill="#000000" stroke="none">
<path d="M392 1340 c-22 -10 -48 -33 -60 -52 -32 -51 -31 -173 2 -271 38 -117
38 -127 5 -260 -40 -158 -51 -366 -25 -467 21 -81 64 -175 100 -218 l28 -32
148 1 c119 1 154 5 174 18 71 47 159 211 182 342 11 61 14 139 12 284 l-3 200
49 97 c40 80 49 109 53 165 5 57 2 76 -16 110 -42 83 -121 107 -193 58 -47
-32 -73 -101 -82 -215 -11 -141 -16 -159 -63 -228 -25 -37 -49 -71 -54 -76 -5
-6 -22 19 -40 59 -27 57 -32 77 -28 124 2 31 3 104 3 162 0 90 -3 110 -22 140
-39 64 -107 87 -170 59z m132 -49 c35 -36 42 -213 9 -225 -24 -10 -129 -19
-121 -12 3 4 -2 38 -13 74 -21 75 -24 123 -8 155 10 21 9 21 -10 -2 -26 -29
-26 -58 -1 -146 24 -83 24 -85 6 -85 -16 0 -46 99 -46 154 0 80 56 131 128
115 19 -4 44 -17 56 -28z m452 4 c58 -37 64 -98 22 -197 -29 -69 -38 -74 -103
-58 l-54 13 6 81 c4 52 13 95 26 121 12 22 20 42 20 45 -3 13 62 9 83 -5z
m-117 -30 c-14 -24 -23 -60 -26 -115 -4 -58 -10 -80 -19 -80 -33 0 -5 166 34
205 33 33 35 31 11 -10z m65 -307 c3 3 6 0 6 -7 0 -12 -17 -10 -97 12 -24 6
-43 14 -43 18 0 3 29 -2 64 -11 35 -10 67 -16 70 -12z m-399 12 c-11 -5 -45
-8 -75 -8 l-55 1 45 7 c25 4 59 7 75 8 25 0 27 -1 10 -8z m285 -85 c23 -8 53
-15 66 -15 12 0 25 -4 28 -8 11 -18 17 -73 21 -187 7 -230 -41 -390 -152 -508
l-42 -44 -87 23 c-48 13 -91 29 -95 36 -33 52 -35 228 -4 323 35 109 95 229
155 310 28 37 50 72 50 76 0 12 11 11 60 -6z m-222 -61 l33 -67 -40 -81 c-22
-44 -52 -117 -67 -161 -25 -71 -28 -95 -29 -211 l0 -132 -28 42 c-15 22 -39
79 -54 124 -24 77 -25 93 -19 190 3 59 17 157 30 217 13 61 21 115 17 120 -3
6 -18 -42 -34 -105 -23 -95 -29 -139 -30 -255 -2 -134 -1 -143 27 -210 33 -81
93 -168 108 -158 7 3 8 1 4 -5 -14 -22 -45 -12 -74 24 -18 21 -44 77 -62 132
-28 84 -32 109 -32 206 0 121 6 174 27 251 7 28 18 69 25 92 l11 42 62 4 c34
2 69 4 77 5 10 1 27 -22 48 -64z"/>
<path d="M729 810 c-159 -255 -173 -288 -173 -440 0 -152 13 -188 75 -206 56
-17 102 -18 97 -2 -2 6 -33 17 -67 24 -35 7 -65 15 -67 17 -2 1 -8 36 -15 76
-22 145 15 289 111 431 56 82 103 170 92 170 -5 0 -29 -31 -53 -70z"/>
</g>
</svg>
